<svg xmlns="http://www.w3.org/2000/svg" width="512" height="512"><circle cx="256" cy="256" fill="#ffce00" r="256" data-original="#ffce00"/><path d="M512 256c0-7.781-.347-15.482-1.027-23.087l-85.258-85.257-34.504 31.779-80.612-80.612-223.39 266.785L232.54 510.939A259.21 259.21 0 00256 512c141.385 0 256-114.615 256-256z" fill="#ffa300" data-original="#ffa300"/><path d="M397.363 132.851h-73.539l-10.352-28.403a25.925 25.925 0 00-24.357-17.047h-66.227a25.923 25.923 0 00-24.357 17.047l-10.352 28.403H114.64c-19.089 0-34.565 15.475-34.565 34.565v177.169c0 19.089 15.475 34.565 34.565 34.565h282.725c19.089 0 34.565-15.475 34.565-34.565V167.416c-.003-19.09-15.478-34.565-34.567-34.565z" fill="#707789" data-original="#707789"/><path d="M397.363 132.851h-73.539l-10.352-28.403a25.925 25.925 0 00-24.357-17.047h-33.269v291.748h141.518c19.089 0 34.565-15.475 34.565-34.565V167.416c-.002-19.09-15.477-34.565-34.566-34.565z" fill="#555a66" data-original="#555a66"/><circle cx="256" cy="258.93" fill="#9196aa" r="104.09" data-original="#9196aa"/><path d="M256 154.84l-.156.002v208.177l.156.002c57.487 0 104.09-46.603 104.09-104.09S313.487 154.84 256 154.84z" fill="#707789" data-original="#707789"/><circle cx="256" cy="258.93" fill="#414952" r="67.283" data-original="#414952"/><path d="M256 191.647c-.052 0-.104.004-.156.004v134.558c.052 0 .103.004.156.004 37.159 0 67.283-30.124 67.283-67.283S293.159 191.647 256 191.647z" fill="#23272b" data-original="#23272b"/><path d="M298.353 131.6h-84.706l8.136-23.674h68.434z" fill="#bec3d2" data-original="#bec3d2"/><path d="M290.217 107.926h-34.373V131.6h42.509zm65.012 55.384h59.294v33.882h-59.294z" fill="#9196aa" data-original="#9196aa"/><circle cx="123.266" cy="334.676" fill="#bec3d2" r="19.547" data-original="#bec3d2"/><circle cx="220.677" cy="225.319" fill="#fff" r="12.706" data-original="#ffffff"/><circle cx="236.718" cy="257.166" fill="#fff" r="17.661" data-original="#ffffff"/></svg>